<svg xmlns="http://www.w3.org/2000/svg" viewBox="0 0 512 512">
  <defs>
    <linearGradient id="bg" x1="0" y1="0" x2="1" y2="1">
      <stop offset="0%" stop-color="#FF6B35"/>
      <stop offset="100%" stop-color="#E07B39"/>
    </linearGradient>
  </defs>
  <rect width="512" height="512" rx="120" fill="url(#bg)"/>
  
  <!-- 铅笔杆 -->
  <rect x="196" y="100" width="120" height="240" rx="6" fill="#FFD700"/>
  
  <!-- 铅笔条纹 -->
  <rect x="196" y="130" width="120" height="10" fill="#E6C200"/>
  <rect x="196" y="180" width="120" height="10" fill="#E6C200"/>
  <rect x="196" y="230" width="120" height="10" fill="#E6C200"/>
  <rect x="196" y="280" width="120" height="10" fill="#E6C200"/>
  
  <!-- 橡皮头套 -->
  <rect x="196" y="70" width="120" height="34" rx="6" fill="#FFB5B5"/>
  
  <!-- 金属箍 -->
  <rect x="196" y="100" width="120" height="12" rx="2" fill="#C0C0C0"/>
  <rect x="196" y="106" width="120" height="2" fill="#A0A0A0"/>
  
  <!-- 笔尖木头 -->
  <polygon points="196,335 316,335 256,420" fill="#DEB887"/>
  <polygon points="196,335 208,335 256,415" fill="#D2A56E"/>
  
  <!-- 笔尖石墨 -->
  <polygon points="246,350 266,350 256,420" fill="#333"/>
  
  <!-- 高光 -->
  <rect x="216" y="115" width="16" height="180" rx="8" fill="rgba(255,255,255,0.3)"/>
  
  <!-- 星星装饰 -->
  <polygon points="360,130 370,160 400,160 375,180 385,210 360,190 335,210 345,180 320,160 350,160" fill="#FFE066" opacity="0.8"/>
</svg>
